<svg width="512" height="514" viewBox="0 0 512 514" fill="none" xmlns="http://www.w3.org/2000/svg">
<path d="M163.825 383.813L87.079 358.231L64.581 358.105L25.228 471.17C23.974 474.771 26.892 478.454 30.685 478.056L85.848 472.28C87.389 472.119 88.921 472.652 90.029 473.735L129.684 512.514C132.41 515.18 136.984 514.105 138.237 510.504L177.848 396.699L163.825 383.813Z" fill="#0083FD"/>
<path d="M177.848 396.699L185.852 373.704L72.562 335.178L64.582 358.105C96.752 381.06 135.704 395.112 177.848 396.699V396.699Z" fill="#0072FC"/>
<path d="M207.879 383.813L284.625 358.231L307.123 358.105L346.477 471.171C347.731 474.772 344.813 478.455 341.02 478.057L285.857 472.281C284.316 472.12 282.784 472.653 281.677 473.736L242.022 512.515C239.296 515.181 234.722 514.106 233.469 510.505L193.858 396.7L207.879 383.813Z" fill="#0083FD"/>
<path d="M193.856 396.699L185.852 373.704L299.142 335.178L307.122 358.105C274.952 381.06 236 395.112 193.856 396.699Z" fill="#0072FC"/>
<path d="M185.852 358.105C0.231979 358.105 0.0779726 181.588 0.231973 178.485C5.11097 80.194 86.35 2 185.852 2C285.354 2 366.593 80.194 371.472 178.485C371.626 181.588 371.472 358.105 185.852 358.105Z" fill="#FF9838"/>
<path d="M185.852 354.969C86.35 354.969 5.114 276.775 0.234001 178.485C0.0800012 181.588 0 184.711 0 187.852C0 290.495 83.209 373.704 185.852 373.704C288.495 373.704 371.704 290.495 371.704 187.852C371.704 184.711 371.624 181.588 371.47 178.485C366.59 276.775 285.354 354.969 185.852 354.969V354.969Z" fill="#FF8709"/>
<path d="M332.264 187.852C332.264 250.546 266.713 325.264 185.852 325.264C104.991 325.264 39.44 246.435 39.44 187.852C39.44 184.705 39.539 181.582 39.735 178.484C44.565 101.988 108.138 41.4399 185.852 41.4399C263.566 41.4399 327.139 101.988 331.969 178.484C332.165 181.582 332.264 184.705 332.264 187.852Z" fill="#CE7430"/>
<path d="M185.852 315.529C108.139 315.529 44.578 254.979 39.747 178.485C39.551 181.583 39.44 184.704 39.44 187.852C39.44 268.713 104.991 334.264 185.852 334.264C266.713 334.264 332.264 268.713 332.264 187.852C332.264 184.704 332.153 181.583 331.957 178.485C327.126 254.979 263.565 315.529 185.852 315.529Z" fill="#BC672E"/>
<path d="M186.037 274.82C154.504 274.82 134.44 253.083 130.578 227.293C130.227 224.947 130.116 219.912 130.116 219.912C132.801 213.071 139.463 208.227 147.256 208.227C157.421 208.227 165.662 216.467 165.662 226.633C165.662 237.868 174.802 247.008 186.037 247.008C197.272 247.008 206.413 237.868 206.413 226.633C206.413 223.255 205.587 220.067 204.126 217.259C204.126 217.259 202.744 199.903 187.023 199.903C171.253 199.903 170.197 178.475 170.197 178.475C173.404 173.07 179.298 169.447 186.038 169.447C197.273 169.447 206.414 160.307 206.414 149.072C206.414 137.837 197.273 128.697 186.038 128.697C174.803 128.697 165.663 137.837 165.663 149.072C165.663 159.238 157.422 167.478 147.257 167.478C137.092 167.478 128.851 159.238 128.851 149.072C128.851 117.54 154.505 91.886 186.037 91.886C217.57 91.886 243.224 117.54 243.224 149.072C243.224 164.024 237.458 177.652 228.03 187.853C235.448 195.879 240.599 206.027 242.459 217.272C242.459 217.272 242.516 223.444 241.981 226.587C237.418 253.409 217.57 274.82 186.037 274.82V274.82Z" fill="#FFAA5C"/>
<path d="M186.037 187.523C179.297 187.523 173.42 183.889 170.214 178.485C168.584 181.231 167.632 184.427 167.632 187.852C167.632 198.018 175.872 206.258 186.038 206.258C193.895 206.258 200.715 210.736 204.113 217.267C205.574 214.459 206.414 211.278 206.414 207.9C206.413 196.663 197.272 187.523 186.037 187.523V187.523Z" fill="#EA9957"/>
<path d="M186.037 265.085C158.628 265.085 135.67 245.698 130.132 219.919C129.315 222.001 128.85 224.261 128.85 226.634C128.85 258.167 154.504 283.821 186.037 283.821C217.57 283.821 243.224 258.167 243.224 226.634C243.224 223.445 242.947 220.322 242.443 217.274C237.955 244.36 214.377 265.085 186.037 265.085V265.085Z" fill="#EA9957"/>
<path d="M204.32 382.791L121.79 354.249L103.581 356.104L64.228 469.17C62.974 472.771 65.892 476.454 69.685 476.056L124.848 470.28C126.389 470.119 127.921 470.652 129.029 471.735L168.684 510.514C171.41 513.18 175.984 512.105 177.237 508.504L216.848 394.699L204.32 382.791Z" fill="#98DB7C"/>
<path d="M216.848 394.699L224.852 371.704L111.562 333.178L103.582 356.105C135.752 379.06 174.704 393.112 216.848 394.699V394.699Z" fill="#82D361"/>
<path d="M245.384 382.791L327.914 354.249L346.123 356.104L385.477 469.17C386.73 472.771 383.813 476.454 380.02 476.056L324.857 470.28C323.316 470.119 321.784 470.652 320.677 471.735L281.022 510.514C278.296 513.18 273.722 512.105 272.469 508.504L232.858 394.699L245.384 382.791Z" fill="#98DB7C"/>
<path d="M232.856 394.699L224.852 371.704L338.142 333.178L346.122 356.105C313.952 379.06 275 393.112 232.856 394.699Z" fill="#82D361"/>
<path d="M224.852 359.438C39.232 359.438 39.078 179.588 39.232 176.485C44.111 78.194 125.35 0 224.852 0C324.288 0 405.485 78.09 410.462 176.288C410.623 179.456 410.462 359.438 224.852 359.438Z" fill="#E0E0E0"/>
<path d="M224.852 352.969C125.35 352.969 44.114 274.775 39.234 176.484C39.08 179.587 39 182.71 39 185.851C39 288.494 122.209 371.703 224.852 371.703C327.495 371.703 410.704 288.494 410.704 185.851C410.704 182.709 410.624 179.587 410.47 176.484C405.59 274.775 324.354 352.969 224.852 352.969Z" fill="#CECECE"/>
<path d="M224.852 320.63C78.44 320.63 78.539 179.582 78.735 176.484C83.566 99.9879 147.138 39.4399 224.852 39.4399C302.566 39.4399 366.138 99.9879 370.969 176.484C371.165 179.582 370.969 320.63 224.852 320.63V320.63Z" fill="#9E9E9E"/>
<path d="M224.852 313.529C147.139 313.529 83.578 252.979 78.747 176.485C78.551 179.583 78.44 182.705 78.44 185.852C78.44 266.713 143.991 332.264 224.852 332.264C305.713 332.264 371.264 266.713 371.264 185.852C371.264 182.704 371.153 179.583 370.957 176.485C366.126 252.979 302.565 313.529 224.852 313.529Z" fill="#898989"/>
<path d="M266.998 272.82H183.076C172.911 272.82 165.062 255.125 165.827 251.081C167.95 239.851 172.947 229.269 180.408 220.45L239.457 150.662C244.982 144.132 242.517 137.096 241.629 135.094C240.55 132.661 237.195 126.972 229.379 126.708C229.153 126.7 228.918 126.696 228.683 126.696C217.704 126.696 208.773 135.628 208.773 146.607C208.773 156.772 200.532 165.013 190.367 165.013C180.202 165.013 171.961 156.773 171.961 146.607C171.961 115.331 197.406 89.884 228.683 89.884C229.33 89.884 229.974 89.895 230.615 89.917C250.185 90.577 267.297 102.171 275.28 120.172C283.382 138.442 280.423 159.236 267.558 174.44L208.51 244.228C208.293 244.485 208.08 244.745 207.872 245.009H266.999C273.739 245.009 279.633 248.632 282.84 254.037C284.468 256.783 277.163 272.82 266.998 272.82V272.82Z" fill="#E0E0E0"/>
<path d="M266.998 263.085H183.076C175.166 263.085 168.441 258.086 165.838 251.083C165.073 255.128 164.67 259.254 164.67 263.414C164.67 273.58 172.911 281.82 183.076 281.82H266.998C277.163 281.82 285.404 273.58 285.404 263.414C285.404 259.989 284.451 256.793 282.822 254.047C279.615 259.451 273.738 263.085 266.998 263.085Z" fill="#CECECE"/>
<path d="M160.88 357.114L140.582 358.104L101.228 471.17C99.974 474.771 102.892 478.454 106.685 478.056L161.848 472.28C163.389 472.119 164.921 472.652 166.029 473.735L205.684 512.514C208.41 515.18 212.984 514.105 214.237 510.504L253.848 396.699L242.168 385.363L160.88 357.114Z" fill="#FF4755"/>
<path d="M253.848 396.699L261.852 373.704L148.562 335.178L140.582 358.105C172.752 381.06 211.704 395.112 253.848 396.699V396.699Z" fill="#FC2B3A"/>
<path d="M362.824 357.114L383.122 358.104L422.476 471.17C423.73 474.771 420.812 478.454 417.019 478.056L361.856 472.28C360.315 472.119 358.783 472.652 357.676 473.735L318.021 512.514C315.295 515.18 310.721 514.105 309.468 510.504L269.857 396.699L281.537 385.363L362.824 357.114Z" fill="#FF4755"/>
<path d="M269.856 396.699L261.852 373.704L375.142 335.178L383.122 358.105C350.952 381.06 312 395.112 269.856 396.699Z" fill="#FC2B3A"/>
<path d="M261.852 362.116C76 362.116 76.078 181.587 76.232 178.484C81.111 80.194 162.35 2 261.852 2C361.354 2 442.593 80.194 447.472 178.485C447.626 181.588 447.704 362.116 261.852 362.116Z" fill="#FFE27A"/>
<path d="M261.852 354.969C162.35 354.969 81.114 276.775 76.234 178.484C76.08 181.587 76 184.71 76 187.851C76 290.494 159.209 373.703 261.852 373.703C364.495 373.703 447.704 290.494 447.704 187.851C447.704 184.709 447.624 181.587 447.47 178.484C442.59 276.775 361.354 354.969 261.852 354.969Z" fill="#F9CF58"/>
<path d="M261.852 322.126C115.735 322.126 115.539 178.444 115.735 175.346C120.566 98.85 184.138 38.302 261.852 38.302C339.566 38.302 403.138 98.85 407.969 175.346C408.165 178.443 407.969 322.126 261.852 322.126V322.126Z" fill="#FFBA57"/>
<path d="M261.852 315.529C184.139 315.529 120.578 254.979 115.747 178.484C115.551 181.582 115.44 184.704 115.44 187.851C115.44 268.712 180.991 334.263 261.852 334.263C342.713 334.263 408.264 268.712 408.264 187.851C408.264 184.703 408.153 181.582 407.957 178.484C403.126 254.979 339.565 315.529 261.852 315.529Z" fill="#FFAC3E"/>
<path d="M270.202 274.82C260.037 274.82 251.796 266.58 251.796 256.414V246.679V153.263C251.796 153.263 240.783 164.308 227.606 157.681C217.332 152.514 217.332 139.215 217.332 139.215L240.025 100.909C243.339 95.315 249.359 91.884 255.861 91.884H270.202C280.367 91.884 288.608 100.124 288.608 110.29V246.679V256.414C288.608 266.58 280.367 274.82 270.202 274.82Z" fill="#FFE27A"/>
<path d="M249.267 138.8C244.382 147.047 233.995 150.623 225.332 146.518C221.826 144.857 219.123 142.276 217.326 139.228C212.215 147.874 214.982 158.997 223.492 164.252C232.268 169.672 243.995 166.436 249.251 157.561L251.797 153.262V139.491C251.797 138.109 249.972 137.61 249.267 138.8V138.8Z" fill="#F9CF58"/>
<path d="M270.202 265.085C260.037 265.085 251.796 256.845 251.796 246.679V265.414C251.796 275.58 260.037 283.82 270.202 283.82C280.367 283.82 288.608 275.58 288.608 265.414V246.679C288.608 256.845 280.367 265.085 270.202 265.085Z" fill="#F9CF58"/>
</svg>
