<svg width="763" height="620" viewBox="0 0 763 620" fill="none" xmlns="http://www.w3.org/2000/svg">
<path d="M163.825 489.813L87.079 464.231L64.581 464.105L25.228 577.17C23.974 580.771 26.892 584.454 30.685 584.056L85.848 578.28C87.389 578.119 88.921 578.652 90.029 579.735L129.684 618.514C132.41 621.18 136.984 620.105 138.237 616.504L177.848 502.699L163.825 489.813Z" fill="#0083FD"/>
<path d="M177.848 502.699L185.852 479.704L72.562 441.178L64.582 464.105C96.752 487.06 135.704 501.112 177.848 502.699V502.699Z" fill="#0072FC"/>
<path d="M207.879 489.813L284.625 464.231L307.123 464.105L346.477 577.171C347.731 580.772 344.813 584.455 341.02 584.057L285.857 578.281C284.316 578.12 282.784 578.653 281.677 579.736L242.022 618.515C239.296 621.181 234.722 620.106 233.469 616.505L193.858 502.7L207.879 489.813Z" fill="#0083FD"/>
<path d="M193.856 502.699L185.852 479.704L299.142 441.178L307.122 464.105C274.952 487.06 236 501.112 193.856 502.699Z" fill="#0072FC"/>
<path d="M185.852 464.105C0.232002 464.105 0.0779955 287.588 0.231996 284.485C5.111 186.194 86.35 108 185.852 108C285.354 108 366.593 186.194 371.472 284.485C371.626 287.588 371.472 464.105 185.852 464.105Z" fill="#FF9838"/>
<path d="M185.852 460.969C86.35 460.969 5.114 382.775 0.234001 284.485C0.0800012 287.588 0 290.711 0 293.852C0 396.495 83.209 479.704 185.852 479.704C288.495 479.704 371.704 396.495 371.704 293.852C371.704 290.711 371.624 287.588 371.47 284.485C366.59 382.775 285.354 460.969 185.852 460.969V460.969Z" fill="#FF8709"/>
<path d="M332.264 293.852C332.264 356.546 266.713 431.264 185.852 431.264C104.991 431.264 39.44 352.435 39.44 293.852C39.44 290.705 39.539 287.582 39.735 284.484C44.565 207.988 108.138 147.44 185.852 147.44C263.566 147.44 327.139 207.988 331.969 284.484C332.165 287.582 332.264 290.705 332.264 293.852Z" fill="#CE7430"/>
<path d="M185.852 421.529C108.139 421.529 44.578 360.979 39.747 284.485C39.551 287.583 39.44 290.704 39.44 293.852C39.44 374.713 104.991 440.264 185.852 440.264C266.713 440.264 332.264 374.713 332.264 293.852C332.264 290.704 332.153 287.583 331.957 284.485C327.126 360.979 263.565 421.529 185.852 421.529Z" fill="#BC672E"/>
<path d="M186.037 380.82C154.504 380.82 134.44 359.083 130.578 333.293C130.227 330.947 130.116 325.912 130.116 325.912C132.801 319.071 139.463 314.227 147.256 314.227C157.421 314.227 165.662 322.467 165.662 332.633C165.662 343.868 174.802 353.008 186.037 353.008C197.272 353.008 206.413 343.868 206.413 332.633C206.413 329.255 205.587 326.067 204.126 323.259C204.126 323.259 202.744 305.903 187.023 305.903C171.253 305.903 170.197 284.475 170.197 284.475C173.404 279.07 179.298 275.447 186.038 275.447C197.273 275.447 206.414 266.307 206.414 255.072C206.414 243.837 197.273 234.697 186.038 234.697C174.803 234.697 165.663 243.837 165.663 255.072C165.663 265.238 157.422 273.478 147.257 273.478C137.092 273.478 128.851 265.238 128.851 255.072C128.851 223.54 154.505 197.886 186.037 197.886C217.57 197.886 243.224 223.54 243.224 255.072C243.224 270.024 237.458 283.652 228.03 293.853C235.448 301.879 240.599 312.027 242.459 323.272C242.459 323.272 242.516 329.444 241.981 332.587C237.418 359.409 217.57 380.82 186.037 380.82V380.82Z" fill="#FFAA5C"/>
<path d="M186.037 293.523C179.297 293.523 173.42 289.889 170.214 284.485C168.584 287.231 167.632 290.427 167.632 293.852C167.632 304.018 175.872 312.258 186.038 312.258C193.895 312.258 200.715 316.736 204.113 323.267C205.574 320.459 206.414 317.278 206.414 313.9C206.413 302.663 197.272 293.523 186.037 293.523V293.523Z" fill="#EA9957"/>
<path d="M186.037 371.085C158.628 371.085 135.67 351.698 130.132 325.919C129.315 328.001 128.85 330.261 128.85 332.634C128.85 364.167 154.504 389.821 186.037 389.821C217.57 389.821 243.224 364.167 243.224 332.634C243.224 329.445 242.947 326.322 242.443 323.274C237.955 350.36 214.377 371.085 186.037 371.085V371.085Z" fill="#EA9957"/>
<path d="M556.32 490.791L473.79 462.249L455.581 464.104L416.228 577.17C414.974 580.771 417.892 584.454 421.685 584.056L476.848 578.28C478.389 578.119 479.921 578.652 481.029 579.735L520.684 618.514C523.41 621.18 527.984 620.105 529.237 616.504L568.848 502.699L556.32 490.791Z" fill="#98DB7C"/>
<path d="M568.848 502.699L576.852 479.704L463.562 441.178L455.582 464.105C487.752 487.06 526.704 501.112 568.848 502.699V502.699Z" fill="#82D361"/>
<path d="M597.384 490.791L679.914 462.249L698.123 464.104L737.477 577.17C738.73 580.771 735.813 584.454 732.02 584.056L676.857 578.28C675.316 578.119 673.784 578.652 672.677 579.735L633.022 618.514C630.296 621.18 625.722 620.105 624.469 616.504L584.858 502.699L597.384 490.791Z" fill="#98DB7C"/>
<path d="M584.856 502.699L576.852 479.704L690.142 441.178L698.122 464.105C665.952 487.06 627 501.112 584.856 502.699Z" fill="#82D361"/>
<path d="M576.852 467.438C391.232 467.438 391.078 287.588 391.232 284.485C396.111 186.194 477.35 108 576.852 108C676.288 108 757.485 186.09 762.462 284.288C762.623 287.456 762.462 467.438 576.852 467.438Z" fill="#E0E0E0"/>
<path d="M576.852 460.969C477.35 460.969 396.114 382.775 391.234 284.484C391.08 287.587 391 290.71 391 293.851C391 396.494 474.209 479.703 576.852 479.703C679.495 479.703 762.704 396.494 762.704 293.851C762.704 290.709 762.624 287.587 762.47 284.484C757.59 382.775 676.354 460.969 576.852 460.969Z" fill="#CECECE"/>
<path d="M576.852 428.63C430.44 428.63 430.539 287.582 430.735 284.484C435.566 207.988 499.138 147.44 576.852 147.44C654.566 147.44 718.138 207.988 722.969 284.484C723.165 287.582 722.969 428.63 576.852 428.63V428.63Z" fill="#9E9E9E"/>
<path d="M576.852 421.529C499.139 421.529 435.578 360.979 430.747 284.485C430.551 287.583 430.44 290.705 430.44 293.852C430.44 374.713 495.991 440.264 576.852 440.264C657.713 440.264 723.264 374.713 723.264 293.852C723.264 290.704 723.153 287.583 722.957 284.485C718.126 360.979 654.565 421.529 576.852 421.529Z" fill="#898989"/>
<path d="M618.998 380.82H535.076C524.911 380.82 517.062 363.125 517.827 359.081C519.95 347.851 524.947 337.269 532.408 328.45L591.457 258.662C596.982 252.132 594.517 245.096 593.629 243.094C592.55 240.661 589.195 234.972 581.379 234.708C581.153 234.7 580.918 234.696 580.683 234.696C569.704 234.696 560.773 243.628 560.773 254.607C560.773 264.772 552.532 273.013 542.367 273.013C532.202 273.013 523.961 264.773 523.961 254.607C523.961 223.331 549.406 197.884 580.683 197.884C581.33 197.884 581.974 197.895 582.615 197.917C602.185 198.577 619.297 210.171 627.28 228.172C635.382 246.442 632.423 267.236 619.558 282.44L560.51 352.228C560.293 352.485 560.08 352.745 559.872 353.009H618.999C625.739 353.009 631.633 356.632 634.84 362.037C636.468 364.783 629.163 380.82 618.998 380.82V380.82Z" fill="#E0E0E0"/>
<path d="M618.998 371.085H535.076C527.166 371.085 520.441 366.086 517.838 359.083C517.073 363.128 516.67 367.254 516.67 371.414C516.67 381.58 524.911 389.82 535.076 389.82H618.998C629.163 389.82 637.404 381.58 637.404 371.414C637.404 367.989 636.451 364.793 634.822 362.047C631.615 367.451 625.738 371.085 618.998 371.085Z" fill="#CECECE"/>
<path d="M262.88 355.114L242.582 356.104L203.228 469.17C201.974 472.771 204.892 476.454 208.685 476.056L263.848 470.28C265.389 470.119 266.921 470.652 268.029 471.735L307.684 510.514C310.41 513.18 314.984 512.105 316.237 508.504L355.848 394.699L344.168 383.363L262.88 355.114Z" fill="#FF4755"/>
<path d="M355.848 394.699L363.852 371.704L250.562 333.178L242.582 356.105C274.752 379.06 313.704 393.112 355.848 394.699V394.699Z" fill="#FC2B3A"/>
<path d="M464.824 355.114L485.122 356.104L524.476 469.17C525.73 472.771 522.812 476.454 519.019 476.056L463.856 470.28C462.315 470.119 460.783 470.652 459.676 471.735L420.021 510.514C417.295 513.18 412.721 512.105 411.468 508.504L371.857 394.699L383.537 383.363L464.824 355.114Z" fill="#FF4755"/>
<path d="M371.856 394.699L363.852 371.704L477.142 333.178L485.122 356.105C452.952 379.06 414 393.112 371.856 394.699Z" fill="#FC2B3A"/>
<path d="M363.852 360.116C178 360.116 178.078 179.587 178.232 176.484C183.111 78.194 264.35 0 363.852 0C463.354 0 544.593 78.194 549.472 176.485C549.626 179.588 549.704 360.116 363.852 360.116Z" fill="#FFE27A"/>
<path d="M363.852 352.969C264.35 352.969 183.114 274.775 178.234 176.484C178.08 179.587 178 182.71 178 185.851C178 288.494 261.209 371.703 363.852 371.703C466.495 371.703 549.704 288.494 549.704 185.851C549.704 182.709 549.624 179.587 549.47 176.484C544.59 274.775 463.354 352.969 363.852 352.969Z" fill="#F9CF58"/>
<path d="M363.852 320.126C217.735 320.126 217.539 176.444 217.735 173.346C222.566 96.85 286.138 36.302 363.852 36.302C441.566 36.302 505.138 96.85 509.969 173.346C510.165 176.443 509.969 320.126 363.852 320.126V320.126Z" fill="#FFBA57"/>
<path d="M363.852 313.529C286.139 313.529 222.578 252.979 217.747 176.484C217.551 179.582 217.44 182.704 217.44 185.851C217.44 266.712 282.991 332.263 363.852 332.263C444.713 332.263 510.264 266.712 510.264 185.851C510.264 182.703 510.153 179.582 509.957 176.484C505.126 252.979 441.565 313.529 363.852 313.529Z" fill="#FFAC3E"/>
<path d="M372.202 272.82C362.037 272.82 353.796 264.58 353.796 254.414V244.679V151.263C353.796 151.263 342.783 162.308 329.606 155.681C319.332 150.514 319.332 137.215 319.332 137.215L342.025 98.909C345.339 93.315 351.359 89.884 357.861 89.884H372.202C382.367 89.884 390.608 98.124 390.608 108.29V244.679V254.414C390.608 264.58 382.367 272.82 372.202 272.82Z" fill="#FFE27A"/>
<path d="M351.267 136.8C346.382 145.047 335.995 148.623 327.332 144.518C323.826 142.857 321.123 140.276 319.326 137.228C314.215 145.874 316.982 156.997 325.492 162.252C334.268 167.672 345.995 164.436 351.251 155.561L353.797 151.262V137.491C353.797 136.109 351.972 135.61 351.267 136.8V136.8Z" fill="#F9CF58"/>
<path d="M372.202 263.085C362.037 263.085 353.796 254.845 353.796 244.679V263.414C353.796 273.58 362.037 281.82 372.202 281.82C382.367 281.82 390.608 273.58 390.608 263.414V244.679C390.608 254.845 382.367 263.085 372.202 263.085Z" fill="#F9CF58"/>
</svg>
