<svg width="286" height="307" viewBox="0 0 286 307" fill="none" xmlns="http://www.w3.org/2000/svg">
<path d="M61.4314 242.536L32.653 229.869L24.2167 229.807L9.46004 285.792C8.98981 287.575 10.084 289.399 11.5063 289.202L32.1914 286.342C32.7693 286.262 33.3437 286.526 33.7592 287.062L48.6291 306.264C49.6513 307.584 51.3665 307.052 51.8363 305.269L66.6897 248.917L61.4314 242.536Z" fill="#0083FD"/>
<path d="M66.6897 248.917L69.6911 237.531L27.2094 218.454L24.2171 229.807C36.2802 241.173 50.8865 248.131 66.6897 248.917V248.917Z" fill="#0072FC"/>
<path d="M77.9508 242.536L106.729 229.869L115.165 229.807L129.923 285.793C130.393 287.576 129.299 289.399 127.876 289.202L107.191 286.342C106.613 286.262 106.039 286.526 105.624 287.063L90.7538 306.264C89.7316 307.585 88.0164 307.052 87.5466 305.269L72.6932 248.917L77.9508 242.536Z" fill="#0083FD"/>
<path d="M72.6924 248.917L69.6911 237.531L112.173 218.454L115.165 229.807C103.102 241.173 88.4957 248.131 72.6924 248.917Z" fill="#0072FC"/>
<path d="M69.6917 229.807C0.0875853 229.807 0.0298356 142.402 0.0875828 140.866C1.91712 92.196 32.3803 53.4774 69.6917 53.4774C107.003 53.4774 137.466 92.196 139.296 140.866C139.354 142.402 139.296 229.807 69.6917 229.807Z" fill="#FF9838"/>
<path d="M69.6911 228.254C32.3797 228.254 1.91766 189.535 0.0877461 140.866C0.029999 142.402 0 143.949 0 145.504C0 196.329 31.2018 237.531 69.6911 237.531C108.18 237.531 139.382 196.329 139.382 145.504C139.382 143.949 139.352 142.402 139.294 140.866C137.465 189.535 107.003 228.254 69.6911 228.254V228.254Z" fill="#FF8709"/>
<path d="M124.593 145.504C124.593 176.548 100.012 213.545 69.6911 213.545C39.3697 213.545 14.7893 174.512 14.7893 145.504C14.7893 143.946 14.8264 142.399 14.8999 140.865C16.7111 102.988 40.5498 73.0066 69.6911 73.0066C98.8324 73.0066 122.671 102.988 124.482 140.865C124.556 142.399 124.593 143.946 124.593 145.504Z" fill="#CE7430"/>
<path d="M69.6911 208.725C40.5501 208.725 16.7159 178.743 14.9044 140.866C14.8309 142.4 14.7893 143.945 14.7893 145.504C14.7893 185.543 39.3697 218.002 69.6911 218.002C100.012 218.002 124.593 185.543 124.593 145.504C124.593 143.945 124.551 142.4 124.478 140.866C122.666 178.743 98.832 208.725 69.6911 208.725Z" fill="#BC672E"/>
<path d="M69.7605 188.567C57.9362 188.567 50.4125 177.804 48.9643 165.034C48.8327 163.872 48.7911 161.379 48.7911 161.379C49.7979 157.991 52.2961 155.593 55.2183 155.593C59.03 155.593 62.1202 159.673 62.1202 164.707C62.1202 170.27 65.5475 174.796 69.7605 174.796C73.9734 174.796 77.4011 170.27 77.4011 164.707C77.4011 163.034 77.0913 161.456 76.5435 160.065C76.5435 160.065 76.0253 151.471 70.1302 151.471C64.2167 151.471 63.8207 140.861 63.8207 140.861C65.0233 138.185 67.2335 136.391 69.7608 136.391C73.9738 136.391 77.4015 131.865 77.4015 126.302C77.4015 120.738 73.9738 116.213 69.7608 116.213C65.5479 116.213 62.1206 120.738 62.1206 126.302C62.1206 131.335 59.0304 135.416 55.2187 135.416C51.407 135.416 48.3168 131.335 48.3168 126.302C48.3168 110.688 57.9365 97.9854 69.7605 97.9854C81.5848 97.9854 91.2045 110.688 91.2045 126.302C91.2045 133.705 89.0424 140.453 85.5071 145.504C88.2887 149.479 90.2202 154.504 90.9177 160.072C90.9177 160.072 90.939 163.128 90.7384 164.684C89.0274 177.965 81.5848 188.567 69.7605 188.567V188.567Z" fill="#FFAA5C"/>
<path d="M69.7605 145.341C67.2331 145.341 65.0293 143.542 63.8271 140.866C63.2159 142.226 62.8589 143.808 62.8589 145.504C62.8589 150.538 65.9488 154.618 69.7608 154.618C72.7071 154.618 75.2644 156.835 76.5386 160.069C77.0865 158.679 77.4015 157.104 77.4015 155.431C77.4011 149.867 73.9734 145.341 69.7605 145.341V145.341Z" fill="#EA9957"/>
<path d="M69.7605 183.747C59.4826 183.747 50.8738 174.147 48.7971 161.382C48.4908 162.413 48.3164 163.532 48.3164 164.707C48.3164 180.321 57.9362 193.024 69.7605 193.024C81.5848 193.024 91.2045 180.321 91.2045 164.707C91.2045 163.128 91.1007 161.582 90.9117 160.073C89.2288 173.485 80.3874 183.747 69.7605 183.747V183.747Z" fill="#EA9957"/>
<path d="M208.61 243.021L177.663 228.888L170.835 229.806L156.078 285.792C155.608 287.575 156.702 289.399 158.124 289.202L178.809 286.342C179.387 286.262 179.962 286.526 180.377 287.062L195.247 306.264C196.269 307.584 197.984 307.052 198.454 305.269L213.308 248.917L208.61 243.021Z" fill="#98DB7C"/>
<path d="M213.308 248.917L216.309 237.531L173.827 218.454L170.835 229.807C182.898 241.173 197.504 248.131 213.308 248.917V248.917Z" fill="#82D361"/>
<path d="M224.008 243.021L254.955 228.888L261.783 229.806L276.54 285.792C277.01 287.575 275.916 289.399 274.494 289.202L253.809 286.342C253.231 286.262 252.657 286.526 252.242 287.062L237.372 306.264C236.349 307.584 234.634 307.052 234.164 305.269L219.311 248.917L224.008 243.021Z" fill="#98DB7C"/>
<path d="M219.31 248.917L216.309 237.531L258.791 218.454L261.783 229.807C249.72 241.173 235.113 248.131 219.31 248.917Z" fill="#82D361"/>
<path d="M216.31 231.457C146.705 231.457 146.648 142.402 146.705 140.866C148.535 92.196 178.998 53.4774 216.31 53.4774C253.596 53.4774 284.044 92.1445 285.91 140.768C285.97 142.337 285.91 231.457 216.31 231.457Z" fill="#E0E0E0"/>
<path d="M216.309 228.254C178.997 228.254 148.535 189.535 146.706 140.865C146.648 142.402 146.618 143.948 146.618 145.504C146.618 196.328 177.82 237.53 216.309 237.53C254.798 237.53 286 196.328 286 145.504C286 143.948 285.97 142.402 285.912 140.865C284.082 189.535 253.62 228.254 216.309 228.254Z" fill="#CECECE"/>
<path d="M216.309 212.241C161.407 212.241 161.444 142.399 161.518 140.865C163.329 102.988 187.168 73.0066 216.309 73.0066C245.45 73.0066 269.289 102.988 271.1 140.865C271.174 142.399 271.1 212.241 216.309 212.241V212.241Z" fill="#9E9E9E"/>
<path d="M216.309 208.725C187.168 208.725 163.334 178.743 161.522 140.866C161.449 142.4 161.407 143.946 161.407 145.504C161.407 185.543 185.988 218.002 216.309 218.002C246.63 218.002 271.211 185.543 271.211 145.504C271.211 143.945 271.169 142.4 271.096 140.866C269.284 178.743 245.45 208.725 216.309 208.725Z" fill="#898989"/>
<path d="M232.113 188.567H200.644C196.832 188.567 193.889 179.805 194.176 177.803C194.972 172.242 196.845 167.003 199.643 162.636L221.786 128.079C223.857 124.846 222.933 121.362 222.6 120.371C222.195 119.166 220.937 116.349 218.006 116.218C217.922 116.214 217.834 116.212 217.745 116.212C213.629 116.212 210.28 120.635 210.28 126.072C210.28 131.105 207.189 135.185 203.378 135.185C199.566 135.185 196.476 131.105 196.476 126.072C196.476 110.585 206.017 97.9845 217.745 97.9845C217.988 97.9845 218.23 97.9899 218.47 98.0008C225.808 98.3276 232.225 104.069 235.218 112.982C238.257 122.029 237.147 132.325 232.323 139.853L210.181 174.41C210.1 174.537 210.02 174.666 209.942 174.796H232.113C234.641 174.796 236.851 176.59 238.053 179.267C238.664 180.626 235.925 188.567 232.113 188.567V188.567Z" fill="#E0E0E0"/>
<path d="M232.113 183.747H200.644C197.678 183.747 195.156 181.272 194.18 177.804C193.893 179.807 193.742 181.85 193.742 183.91C193.742 188.944 196.832 193.024 200.644 193.024H232.113C235.925 193.024 239.015 188.944 239.015 183.91C239.015 182.214 238.657 180.631 238.047 179.272C236.844 181.947 234.64 183.747 232.113 183.747Z" fill="#CECECE"/>
<path d="M98.5752 175.839L90.9638 176.329L76.2068 232.315C75.7365 234.098 76.8307 235.921 78.253 235.724L98.9382 232.864C99.516 232.785 100.09 233.049 100.506 233.585L115.376 252.787C116.398 254.107 118.113 253.574 118.583 251.791L133.436 195.44L129.057 189.826L98.5752 175.839Z" fill="#FF4755"/>
<path d="M133.436 195.44L136.438 184.053L93.9562 164.977L90.9638 176.329C103.027 187.696 117.633 194.654 133.436 195.44V195.44Z" fill="#FC2B3A"/>
<path d="M174.3 175.839L181.912 176.329L196.669 232.315C197.139 234.098 196.045 235.921 194.623 235.724L173.937 232.864C173.36 232.785 172.785 233.049 172.37 233.585L157.5 252.787C156.478 254.107 154.763 253.574 154.293 251.791L139.44 195.44L143.819 189.826L174.3 175.839Z" fill="#FF4755"/>
<path d="M139.439 195.44L136.438 184.053L178.92 164.977L181.912 176.329C169.849 187.696 155.242 194.654 139.439 195.44Z" fill="#FC2B3A"/>
<path d="M136.438 178.315C66.7473 178.315 66.7766 88.9245 66.8343 87.388C68.6639 38.7186 99.127 0 136.438 0C173.75 0 204.213 38.7186 206.043 87.3885C206.1 88.925 206.129 178.315 136.438 178.315Z" fill="#FFE27A"/>
<path d="M136.438 174.776C99.1264 174.776 68.6644 136.058 66.8345 87.3879C66.7767 88.9244 66.7467 90.4708 66.7467 92.0261C66.7467 142.851 97.9486 184.053 136.438 184.053C174.927 184.053 206.129 142.851 206.129 92.0261C206.129 90.4703 206.099 88.9244 206.041 87.3879C204.211 136.058 173.749 174.776 136.438 174.776Z" fill="#F9CF58"/>
<path d="M136.438 158.514C81.6466 158.514 81.5731 87.3682 81.6466 85.8342C83.4582 47.9563 107.296 17.9753 136.438 17.9753C165.579 17.9753 189.417 47.9563 191.229 85.8342C191.303 87.3677 191.229 158.514 136.438 158.514V158.514Z" fill="#FFBA57"/>
<path d="M136.438 155.247C107.297 155.247 83.4627 125.265 81.6511 87.3879C81.5776 88.9219 81.536 90.4678 81.536 92.0261C81.536 132.065 106.116 164.524 136.438 164.524C166.759 164.524 191.34 132.065 191.34 92.0261C191.34 90.4673 191.298 88.9219 191.225 87.3879C189.413 125.265 165.579 155.247 136.438 155.247Z" fill="#FFAC3E"/>
<path d="M139.569 135.09C135.757 135.09 132.667 131.01 132.667 125.976V121.156V74.8996C132.667 74.8996 128.537 80.3686 123.596 77.0872C119.744 74.5287 119.744 67.9435 119.744 67.9435L128.253 48.9759C129.496 46.206 131.753 44.5071 134.191 44.5071H139.569C143.381 44.5071 146.471 48.5872 146.471 53.621V121.156V125.976C146.471 131.01 143.381 135.09 139.569 135.09Z" fill="#FFE27A"/>
<path d="M131.719 67.7381C129.887 71.8217 125.992 73.5924 122.743 71.5597C121.429 70.7373 120.415 69.4593 119.741 67.95C117.825 72.2312 118.862 77.7389 122.054 80.3409C125.344 83.0247 129.742 81.4224 131.713 77.0278L132.667 74.8991V68.0802C132.667 67.3959 131.983 67.1489 131.719 67.7381V67.7381Z" fill="#F9CF58"/>
<path d="M139.569 130.269C135.757 130.269 132.667 126.189 132.667 121.156V130.432C132.667 135.466 135.757 139.546 139.569 139.546C143.381 139.546 146.471 135.466 146.471 130.432V121.156C146.471 126.189 143.381 130.269 139.569 130.269Z" fill="#F9CF58"/>
</svg>
